<svg width="1440" height="678" viewBox="0 0 1440 678" fill="none" xmlns="http://www.w3.org/2000/svg">
<path d="M-0.5 169C32.9214 169 66.0156 175.583 96.8929 188.373C127.77 201.162 155.826 219.909 179.459 243.541C203.091 267.174 221.838 295.23 234.627 326.107C247.417 356.984 254 390.079 254 423.5C254 456.921 247.417 490.016 234.627 520.893C221.838 551.77 203.091 579.826 179.459 603.459C155.826 627.091 127.77 645.837 96.8929 658.627C66.0156 671.417 32.9214 678 -0.5 678L-0.5 169Z" fill="#E0F7FA"/>
<path d="M1526 76C1526 174.395 1481.96 268.761 1403.57 338.337C1325.18 407.913 1218.86 447 1108 447C997.14 447 890.82 407.913 812.429 338.337C734.039 268.761 690 174.395 690 76.0001L1526 76Z" fill="#FFF9C4"/>
<path d="M1567 565C1567 570.523 1562.52 575 1557 575H1374C1274.59 575 1194 494.411 1194 395V225C1194 219.477 1198.48 215 1204 215H1557C1562.52 215 1567 219.477 1567 225V565Z" fill="#FFF9C4"/>
<path d="M690 0H1440V76L690 76.0001V0Z" fill="#FFF9C4"/>
<path d="M-4.97699e-06 84C7.48534 84 14.8974 85.4743 21.813 88.3389C28.7285 91.2034 35.0121 95.402 40.3051 100.695C45.598 105.988 49.7966 112.271 52.6611 119.187C55.5256 126.103 57 133.515 57 141C57 148.485 55.5256 155.897 52.6611 162.813C49.7966 169.729 45.598 176.012 40.3051 181.305C35.0121 186.598 28.7285 190.797 21.813 193.661C14.8974 196.526 7.48534 198 -4.97699e-06 198V84Z" fill="#FFF9C4"/>
</svg>
