<svg width="36" height="36" viewBox="0 0 36 36" fill="none" xmlns="http://www.w3.org/2000/svg">
<path d="M18 9.31454C16.8875 9.31454 15.7999 9.63665 14.8749 10.2401C13.9499 10.8436 13.2289 11.7013 12.8032 12.7049C12.3774 13.7084 12.266 14.8127 12.4831 15.878C12.7001 16.9434 13.2359 17.922 14.0225 18.6901C14.8092 19.4581 15.8115 19.9812 16.9026 20.1931C17.9938 20.405 19.1248 20.2963 20.1526 19.8806C21.1804 19.4649 22.0589 18.761 22.677 17.8578C23.2951 16.9546 23.625 15.8928 23.625 14.8066C23.625 13.35 23.0324 11.9531 21.9775 10.9231C20.9226 9.89317 19.4918 9.31454 18 9.31454ZM18 18.1018C17.3325 18.1018 16.68 17.9086 16.125 17.5465C15.5699 17.1844 15.1374 16.6697 14.8819 16.0676C14.6265 15.4655 14.5596 14.8029 14.6899 14.1637C14.8201 13.5245 15.1415 12.9374 15.6135 12.4765C16.0855 12.0157 16.6869 11.7018 17.3416 11.5747C17.9963 11.4475 18.6749 11.5128 19.2916 11.7622C19.9083 12.0116 20.4354 12.434 20.8062 12.9759C21.1771 13.5178 21.375 14.1549 21.375 14.8066C21.374 15.6802 21.0181 16.5178 20.3854 17.1356C19.7527 17.7533 18.8948 18.1008 18 18.1018Z" fill="black"/>
<path d="M18 2.72412C14.885 2.72412 11.8398 3.62601 9.24977 5.31574C6.6597 7.00546 4.64098 9.40713 3.4489 12.217C2.25682 15.027 1.94492 18.1189 2.55264 21.1019C3.16036 24.0849 4.6604 26.8249 6.86307 28.9755C9.06575 31.1262 11.8721 32.5907 14.9273 33.1841C17.9825 33.7774 21.1493 33.4729 24.0273 32.309C26.9052 31.1451 29.365 29.1741 31.0957 26.6453C32.8263 24.1164 33.75 21.1433 33.75 18.1018C33.7453 14.0248 32.0844 10.1161 29.1317 7.23323C26.1791 4.35034 22.1757 2.72871 18 2.72412ZM11.25 29.4995V27.9875C11.251 27.1139 11.6069 26.2763 12.2396 25.6585C12.8723 25.0407 13.7302 24.6933 14.625 24.6923H21.375C22.2698 24.6933 23.1277 25.0407 23.7604 25.6585C24.3931 26.2763 24.749 27.1139 24.75 27.9875V29.4995C22.7016 30.6673 20.3721 31.2828 18 31.2828C15.6279 31.2828 13.2984 30.6673 11.25 29.4995ZM26.9916 27.906C26.9692 26.4652 26.3679 25.0906 25.3173 24.0785C24.2667 23.0665 22.8509 22.4979 21.375 22.4955H14.625C13.1491 22.4979 11.7333 23.0665 10.6827 24.0785C9.63209 25.0906 9.03081 26.4652 9.00844 27.906C6.96833 26.1274 5.52964 23.7858 4.88288 21.1911C4.23613 18.5964 4.41181 15.8711 5.38666 13.3761C6.36152 10.8811 8.08957 8.73403 10.342 7.21921C12.5944 5.7044 15.265 4.89329 18 4.89329C20.7351 4.89329 23.4056 5.7044 25.658 7.21921C27.9104 8.73403 29.6385 10.8811 30.6133 13.3761C31.5882 15.8711 31.7639 18.5964 31.1171 21.1911C30.4704 23.7858 29.0317 26.1274 26.9916 27.906Z" fill="black"/>
</svg>
