<svg width="34" height="36" viewBox="0 0 34 36" fill="none" xmlns="http://www.w3.org/2000/svg">
<path d="M28.518 28.7783L23.8362 23.8135C25.3467 21.7668 26.1664 19.2393 26.1633 16.6373C26.1633 14.32 25.5173 12.0547 24.3068 10.128C23.0963 8.20126 21.3758 6.69954 19.3629 5.81276C17.35 4.92597 15.135 4.69395 12.9981 5.14603C10.8612 5.59811 8.89829 6.71398 7.35765 8.35255C5.81702 9.99111 4.76784 12.0788 4.34278 14.3515C3.91772 16.6243 4.13588 18.98 4.96966 21.1209C5.80344 23.2618 7.21541 25.0917 9.027 26.3791C10.8386 27.6665 12.9684 28.3536 15.1472 28.3536C17.5937 28.3569 19.9702 27.4851 21.8946 25.8785L26.5627 30.858C26.6907 30.9953 26.843 31.1042 27.0108 31.1786C27.1786 31.2529 27.3586 31.2912 27.5404 31.2912C27.7221 31.2912 27.9021 31.2529 28.0699 31.1786C28.2377 31.1042 28.39 30.9953 28.518 30.858C28.6471 30.7219 28.7495 30.5599 28.8195 30.3814C28.8894 30.2029 28.9254 30.0115 28.9254 29.8182C28.9254 29.6248 28.8894 29.4334 28.8195 29.2549C28.7495 29.0765 28.6471 28.9145 28.518 28.7783ZM6.88514 16.6373C6.88514 14.8993 7.3697 13.2004 8.27755 11.7553C9.1854 10.3103 10.4758 9.18397 11.9855 8.51889C13.4952 7.8538 15.1564 7.67978 16.7591 8.01884C18.3618 8.3579 19.8339 9.19481 20.9894 10.4237C22.1449 11.6526 22.9318 13.2184 23.2506 14.923C23.5694 16.6275 23.4057 18.3943 22.7804 20C22.1551 21.6057 21.0961 22.9781 19.7374 23.9436C18.3787 24.9092 16.7813 25.4245 15.1472 25.4245C12.956 25.4245 10.8545 24.4987 9.30505 22.8508C7.7556 21.2029 6.88514 18.9678 6.88514 16.6373Z" fill="#231F20"/>
</svg>
